<?xml version="1.0" encoding="utf-8"?>
<!-- Generator: Adobe Illustrator 25.2.3, SVG Export Plug-In . SVG Version: 6.00 Build 0)  -->
<svg version="1.1" id="Layer_1" xmlns="http://www.w3.org/2000/svg" xmlns:xlink="http://www.w3.org/1999/xlink" x="0px" y="0px"
	 viewBox="0 0 70 70" style="enable-background:new 0 0 70 70;" xml:space="preserve">
<style type="text/css">
	.st0{fill:#30BFC5;}
</style>
<path class="st0" d="M35,1.1C16.3,1.1,1.1,16.3,1.1,35S16.3,68.9,35,68.9S68.9,53.7,68.9,35S53.7,1.1,35,1.1z M23.3,49.7V20.3h10.5
	c-0.8,1.2-1.5,2.7-2.1,4.2h-3.9v21h3.9c0.6,1.6,1.3,3,2.1,4.2H23.3z M46.7,41.3c0,4.6-3.7,8.4-8.3,8.4c-1.1-1.1-2-2.5-2.8-4.2h2.7
	c2.3,0,4.2-1.9,4.2-4.2s-1.9-4.2-4.2-4.2h-4.8c-0.1-0.7-0.1-1.4-0.1-2.1s0-1.4,0.1-2.1h4.8c2.3,0,4.2-1.9,4.2-4.2s-1.9-4.2-4.2-4.2
	h-2.7c0.8-1.7,1.7-3.1,2.8-4.2c4.6,0,8.3,3.8,8.3,8.4c0,2.5-1.1,4.8-2.9,6.3C45.6,36.5,46.7,38.8,46.7,41.3z"/>
</svg>
