<?xml version="1.0" encoding="utf-8"?>
<!-- Generator: Adobe Illustrator 26.4.1, SVG Export Plug-In . SVG Version: 6.00 Build 0)  -->
<svg version="1.1" id="Layer_1" xmlns="http://www.w3.org/2000/svg" xmlns:xlink="http://www.w3.org/1999/xlink" x="0px" y="0px"
	 viewBox="0 0 70 70" style="enable-background:new 0 0 70 70;" xml:space="preserve">
<style type="text/css">
	.st0{fill:#333435;}
</style>
<path class="st0" d="M68.8,32.8C67.8,15.9,54.1,2.2,37.2,1.2c-20.4-1.3-37.3,15.6-36,36c1.1,16.9,14.8,30.5,31.6,31.6
	C53.2,70.1,70.1,53.2,68.8,32.8z M42.9,42.6c0,8.1-5,12.4-12.3,12.4c-4.4,0-7.7-2-9.1-3.6c0.4-2.4,1.9-4.5,3.9-5.6
	c1.2,1.2,2.6,2.5,5,2.5c3.3,0,5.2-1.5,5.2-5.6v-30c1.1-0.3,2.4-0.4,3.6-0.4s2.4,0.1,3.6,0.4V42.6z"/>
</svg>
