<?xml version="1.0" encoding="utf-8"?>
<!-- Generator: Adobe Illustrator 25.2.3, SVG Export Plug-In . SVG Version: 6.00 Build 0)  -->
<svg version="1.1" id="Layer_1" xmlns="http://www.w3.org/2000/svg" xmlns:xlink="http://www.w3.org/1999/xlink" x="0px" y="0px"
	 viewBox="0 0 50 50" style="enable-background:new 0 0 50 50;" xml:space="preserve">
<style type="text/css">
	.st0{fill:#666666;}
</style>
<path class="st0" d="M38.8,30.8c-2.5,0-4.8,1.2-6.2,3l-14.3-7.1c0.2-0.6,0.3-1.3,0.3-2s-0.1-1.4-0.3-2.1l14.3-7.1
	c1.4,1.8,3.7,3,6.2,3c4.3,0,7.9-3.5,7.9-7.9s-3.5-7.9-7.9-7.9s-7.9,3.5-7.9,7.9c0,0.7,0.1,1.4,0.3,2.1l-14.3,7.1
	c-1.4-1.8-3.7-3-6.2-3c-4.4,0-7.9,3.5-7.9,7.9s3.5,7.9,7.9,7.9c2.5,0,4.7-1.2,6.2-3l14.3,7.1c-0.2,0.6-0.3,1.3-0.3,2
	c0,4.4,3.5,7.9,7.9,7.9c4.3,0,7.9-3.5,7.9-7.9S43.2,30.8,38.8,30.8z M38.8,5.8c2.7,0,4.9,2.2,4.9,4.9s-2.2,4.9-4.9,4.9
	s-4.9-2.2-4.9-4.9C33.9,7.9,36.1,5.8,38.8,5.8z M10.7,29.5c-2.7,0-4.9-2.2-4.9-4.9s2.2-4.9,4.9-4.9s4.9,2.3,4.9,4.9
	C15.6,27.4,13.4,29.5,10.7,29.5z M38.8,43.7c-2.7,0-4.9-2.2-4.9-4.9s2.2-4.9,4.9-4.9s4.9,2.2,4.9,4.9S41.5,43.7,38.8,43.7z"/>
</svg>
