<?xml version="1.0" encoding="UTF-8"?>
<!-- Generator: Adobe Illustrator 25.2.3, SVG Export Plug-In . SVG Version: 6.00 Build 0)  -->
<svg preserveAspectRatio="xMidYMid slice" width="688px" height="688px" xmlns="http://www.w3.org/2000/svg" xmlns:xlink="http://www.w3.org/1999/xlink" version="1.1" id="Layer_1" x="0px" y="0px" viewBox="0 0 45 45" style="enable-background:new 0 0 45 45;" xml:space="preserve">
<style type="text/css">
	.st0{fill:#BAC0C8;}
	.st1{fill:#E4E8EC;}
</style>
<rect class="st0" width="45" height="45"></rect>
<path class="st1" d="M34.2,9.5H10.8c-0.7,0-1.3,0.6-1.3,1.3v23.5c0,0.7,0.6,1.3,1.3,1.3h23.5c0.7,0,1.3-0.6,1.3-1.3V10.8  C35.5,10,35,9.5,34.2,9.5 M33.4,33.4h-0.7c-4.8-17.3-9.9-6.9-9.9-6.9c-1.3,2.9-4.7,0.6-4.7,0.6c-3.4-2.3-5.7,5-5.7,5l-0.4,1.3h-0.7  V11.6h21.9V33.4z M20.3,20.7c1.4-1.4,1.4-3.6,0-5c-1.4-1.4-3.6-1.4-5,0c-1.4,1.4-1.4,3.6,0,5C16.6,22.1,18.9,22.1,20.3,20.7z"></path>
</svg>
