<?xml version="1.0" encoding="UTF-8"?>
<!-- Generator: Adobe Illustrator 25.2.3, SVG Export Plug-In . SVG Version: 6.00 Build 0)  -->
<svg preserveAspectRatio="xMidYMid slice" width="688px" height="688px" xmlns="http://www.w3.org/2000/svg" xmlns:xlink="http://www.w3.org/1999/xlink" version="1.1" id="Layer_1" x="0px" y="0px" viewBox="0 0 300 300" style="enable-background:new 0 0 300 300;" xml:space="preserve">
<style type="text/css">
	.st0{fill:#828282;}
</style>
<g>
	<g>
		<path class="st0" d="M80.3,162.6h6.2v28.3h17.6v5.3H80.3V162.6z"></path>
		<path class="st0" d="M114.9,194.5c-2.8-1.5-4.9-3.6-6.5-6.2c-1.6-2.6-2.4-5.6-2.4-8.9c0-3.3,0.8-6.2,2.4-8.9    c1.6-2.6,3.7-4.7,6.5-6.2c2.8-1.5,5.8-2.2,9.3-2.2c3.4,0,6.5,0.7,9.3,2.2c2.8,1.5,4.9,3.5,6.5,6.2c1.6,2.6,2.4,5.6,2.4,8.9    s-0.8,6.3-2.4,8.9c-1.6,2.6-3.7,4.7-6.5,6.2c-2.8,1.5-5.8,2.2-9.3,2.2C120.7,196.7,117.6,195.9,114.9,194.5z M130.2,189.7    c1.8-1,3.2-2.4,4.2-4.2c1-1.8,1.5-3.8,1.5-6.1s-0.5-4.3-1.5-6.1c-1-1.8-2.4-3.2-4.2-4.2c-1.8-1-3.8-1.5-6-1.5    c-2.2,0-4.3,0.5-6,1.5c-1.8,1-3.2,2.4-4.2,4.2c-1,1.8-1.5,3.8-1.5,6.1s0.5,4.3,1.5,6.1c1,1.8,2.4,3.2,4.2,4.2c1.8,1,3.8,1.5,6,1.5    C126.4,191.2,128.4,190.7,130.2,189.7z"></path>
		<path class="st0" d="M171.8,179h5.9v13.4c-1.7,1.4-3.7,2.4-6,3.2c-2.3,0.7-4.7,1.1-7.1,1.1c-3.4,0-6.5-0.7-9.3-2.2    c-2.8-1.5-4.9-3.5-6.5-6.2c-1.6-2.6-2.4-5.6-2.4-8.9s0.8-6.3,2.4-8.9c1.6-2.6,3.7-4.7,6.5-6.2c2.8-1.5,5.9-2.2,9.3-2.2    c2.8,0,5.4,0.5,7.7,1.4c2.3,0.9,4.2,2.3,5.8,4.1l-3.9,3.8c-2.6-2.6-5.6-3.8-9.3-3.8c-2.4,0-4.5,0.5-6.3,1.5    c-1.8,1-3.3,2.4-4.3,4.2c-1,1.8-1.6,3.8-1.6,6.1c0,2.2,0.5,4.3,1.6,6s2.5,3.2,4.3,4.2c1.8,1,3.9,1.5,6.3,1.5    c2.6,0,4.9-0.6,6.9-1.7V179z"></path>
		<path class="st0" d="M192.3,194.5c-2.8-1.5-4.9-3.6-6.5-6.2c-1.6-2.6-2.4-5.6-2.4-8.9c0-3.3,0.8-6.2,2.4-8.9    c1.6-2.6,3.7-4.7,6.5-6.2c2.8-1.5,5.8-2.2,9.3-2.2c3.4,0,6.5,0.7,9.3,2.2c2.8,1.5,4.9,3.5,6.5,6.2c1.6,2.6,2.4,5.6,2.4,8.9    s-0.8,6.3-2.4,8.9c-1.6,2.6-3.7,4.7-6.5,6.2c-2.8,1.5-5.8,2.2-9.3,2.2C198.2,196.7,195.1,195.9,192.3,194.5z M207.6,189.7    c1.8-1,3.2-2.4,4.2-4.2c1-1.8,1.5-3.8,1.5-6.1s-0.5-4.3-1.5-6.1c-1-1.8-2.4-3.2-4.2-4.2c-1.8-1-3.8-1.5-6-1.5    c-2.2,0-4.3,0.5-6,1.5c-1.8,1-3.2,2.4-4.2,4.2s-1.5,3.8-1.5,6.1s0.5,4.3,1.5,6.1c1,1.8,2.4,3.2,4.2,4.2c1.8,1,3.8,1.5,6,1.5    C203.8,191.2,205.9,190.7,207.6,189.7z"></path>
	</g>
	<polygon class="st0" points="148.8,103.3 155,115.8 168.8,117.9 158.8,127.6 161.2,141.4 148.8,134.9 136.4,141.4 138.8,127.6    128.8,117.9 142.6,115.8  "></polygon>
</g>
</svg>
