<?xml version="1.0" encoding="utf-8"?>
<!-- Generator: Adobe Illustrator 16.0.4, SVG Export Plug-In . SVG Version: 6.00 Build 0)  -->
<!DOCTYPE svg PUBLIC "-//W3C//DTD SVG 1.1//EN" "http://www.w3.org/Graphics/SVG/1.1/DTD/svg11.dtd">
<svg version="1.1" id="Layer_1" xmlns="http://www.w3.org/2000/svg" xmlns:xlink="http://www.w3.org/1999/xlink" x="0px" y="0px"
	 width="402.346px" height="105.552px" viewBox="0 0 402.346 105.552" enable-background="new 0 0 402.346 105.552"
	 xml:space="preserve">
<g>
	<path fill="#999999" d="M178.05,44.767c0-1.526-1.235-2.763-2.763-2.763H161.39c-1.523,0-2.76,1.236-2.76,2.763v13.867h3.917V75.05
		h11.589V58.634h3.914V44.767z"/>
	<path fill="#999999" d="M168.341,40.717c2.723,0,4.936-2.21,4.936-4.934c0-2.727-2.213-4.937-4.936-4.937
		c-2.728,0-4.937,2.21-4.937,4.937C163.405,38.507,165.614,40.717,168.341,40.717z"/>
</g>
<g>
	<path fill="#999999" d="M34.469,53.011v-0.065c0-6.375,4.805-11.6,11.696-11.6c4.232,0,6.764,1.41,8.849,3.462l-3.142,3.622
		c-1.732-1.571-3.494-2.534-5.74-2.534c-3.78,0-6.502,3.141-6.502,6.989v0.061c0,3.848,2.657,7.053,6.502,7.053
		c2.565,0,4.136-1.026,5.897-2.629l3.14,3.175c-2.304,2.467-4.868,4.004-9.195,4.004C39.37,64.548,34.469,59.452,34.469,53.011z"/>
	<path fill="#999999" d="M57.474,53.011v-0.065c0-6.375,4.809-11.6,11.695-11.6c4.231,0,6.763,1.41,8.846,3.462l-3.138,3.622
		c-1.733-1.571-3.496-2.534-5.738-2.534c-3.781,0-6.507,3.141-6.507,6.989v0.061c0,3.848,2.662,7.053,6.507,7.053
		c2.562,0,4.136-1.026,5.896-2.629l3.142,3.175c-2.307,2.467-4.871,4.004-9.198,4.004C62.377,64.548,57.474,59.452,57.474,53.011z"
		/>
</g>
<g>
	<path fill="#606060" d="M236.352,28.248l2.078-0.705c0.168,0.53,0.376,1.042,0.623,1.536c0.247,0.494,0.545,0.988,0.895,1.481
		c0.349,0.494,0.762,0.892,1.237,1.192c0.476,0.301,0.973,0.452,1.491,0.452c0.951,0,1.665-0.289,2.141-0.867
		c0.476-0.578,0.713-1.361,0.713-2.349c0-1.385-1.235-3.162-3.704-5.33l-1.572-1.373c-1.192-1.048-2.093-1.984-2.701-2.81
		c-0.608-0.825-0.913-1.749-0.913-2.773c0-1.626,0.494-2.888,1.481-3.785c0.987-0.897,2.306-1.346,3.957-1.346
		c0.783,0,1.493,0.151,2.132,0.452c0.638,0.301,1.174,0.72,1.608,1.256c0.434,0.536,0.798,1.114,1.093,1.734
		c0.295,0.62,0.533,1.304,0.713,2.05l-2.403,0.741c-0.108-0.674-0.28-1.312-0.515-1.915c-0.235-0.602-0.597-1.147-1.084-1.635
		c-0.488-0.488-1.045-0.732-1.671-0.732c-0.807,0-1.448,0.274-1.924,0.822c-0.476,0.548-0.713,1.256-0.713,2.123
		c0,0.723,0.232,1.409,0.696,2.06c0.463,0.65,1.135,1.349,2.014,2.096l1.716,1.481c0.554,0.482,0.979,0.858,1.273,1.129
		c0.295,0.271,0.669,0.657,1.12,1.156c0.452,0.5,0.792,0.952,1.021,1.355c0.229,0.403,0.437,0.888,0.624,1.454
		c0.187,0.566,0.286,1.145,0.298,1.734c0,1.614-0.509,2.888-1.526,3.821c-1.018,0.933-2.346,1.4-3.984,1.4
		c-1.59,0-2.917-0.557-3.984-1.671C237.518,31.37,236.773,29.958,236.352,28.248z"/>
	<path fill="#606060" d="M253.19,33.667l-3.577-21.644h2.367l2.854,18.464l3.089-18.464h2.891l3.324,18.464l2.602-18.464h2.331
		l-3.541,21.644h-2.62l-3.487-17.85l-3.36,17.85H253.19z"/>
	<path fill="#606060" d="M271.582,23.695v-3.017c0.012-1.505,0.12-2.809,0.325-3.912c0.205-1.102,0.473-1.984,0.804-2.646
		c0.332-0.662,0.759-1.189,1.283-1.581c0.523-0.391,1.062-0.656,1.617-0.795c0.554-0.138,1.204-0.208,1.951-0.208
		c1.939,0,3.333,0.687,4.182,2.06c0.85,1.373,1.274,3.541,1.274,6.504c0,0.903-0.012,1.644-0.036,2.222h-8.672v3.306
		c0,1.421,0.069,2.586,0.208,3.496c0.139,0.91,0.358,1.593,0.66,2.051c0.301,0.458,0.632,0.765,0.994,0.921
		c0.361,0.157,0.819,0.235,1.373,0.235c0.807,0,1.484-0.406,2.032-1.22c0.548-0.812,0.828-2.17,0.84-4.074h2.529
		c-0.072,0.819-0.169,1.548-0.289,2.186c-0.121,0.639-0.31,1.277-0.569,1.915c-0.259,0.639-0.578,1.168-0.958,1.59
		c-0.379,0.422-0.87,0.765-1.472,1.03c-0.603,0.265-1.295,0.397-2.078,0.397c-1.53,0-2.719-0.304-3.568-0.913
		c-0.849-0.608-1.472-1.668-1.87-3.18C271.744,28.552,271.557,26.429,271.582,23.695z M274.328,20.985h5.998
		c-0.012-0.481-0.012-0.969,0-1.463c0.012-0.494,0.006-0.991-0.018-1.491c-0.024-0.5-0.057-0.978-0.099-1.436
		c-0.042-0.458-0.124-0.882-0.244-1.274c-0.121-0.391-0.271-0.731-0.452-1.021s-0.428-0.518-0.741-0.687
		c-0.313-0.168-0.675-0.253-1.084-0.253c-0.663,0-1.208,0.121-1.635,0.361c-0.428,0.241-0.759,0.524-0.994,0.849
		c-0.234,0.325-0.406,0.874-0.515,1.644c-0.108,0.771-0.172,1.448-0.189,2.032C274.336,18.832,274.328,19.745,274.328,20.985z"/>
	<path fill="#606060" d="M286.559,23.695v-3.017c0.012-1.505,0.12-2.809,0.325-3.912c0.205-1.102,0.473-1.984,0.804-2.646
		c0.332-0.662,0.759-1.189,1.283-1.581c0.523-0.391,1.062-0.656,1.617-0.795c0.554-0.138,1.204-0.208,1.951-0.208
		c1.939,0,3.333,0.687,4.182,2.06c0.85,1.373,1.274,3.541,1.274,6.504c0,0.903-0.012,1.644-0.036,2.222h-8.672v3.306
		c0,1.421,0.069,2.586,0.208,3.496c0.139,0.91,0.358,1.593,0.66,2.051c0.301,0.458,0.632,0.765,0.994,0.921
		c0.361,0.157,0.819,0.235,1.373,0.235c0.807,0,1.484-0.406,2.032-1.22c0.548-0.812,0.828-2.17,0.84-4.074h2.529
		c-0.072,0.819-0.169,1.548-0.289,2.186c-0.121,0.639-0.31,1.277-0.569,1.915c-0.259,0.639-0.578,1.168-0.958,1.59
		c-0.379,0.422-0.87,0.765-1.472,1.03c-0.603,0.265-1.295,0.397-2.078,0.397c-1.53,0-2.719-0.304-3.568-0.913
		c-0.849-0.608-1.472-1.668-1.87-3.18C286.721,28.552,286.534,26.429,286.559,23.695z M289.305,20.985h5.998
		c-0.012-0.481-0.012-0.969,0-1.463c0.012-0.494,0.006-0.991-0.018-1.491c-0.024-0.5-0.057-0.978-0.099-1.436
		c-0.042-0.458-0.124-0.882-0.244-1.274c-0.121-0.391-0.271-0.731-0.452-1.021s-0.428-0.518-0.741-0.687
		c-0.313-0.168-0.675-0.253-1.084-0.253c-0.663,0-1.208,0.121-1.635,0.361c-0.428,0.241-0.759,0.524-0.994,0.849
		c-0.234,0.325-0.406,0.874-0.515,1.644c-0.108,0.771-0.172,1.448-0.189,2.032C289.313,18.832,289.305,19.745,289.305,20.985z"/>
	<path fill="#606060" d="M302.602,28.555V13.542h-2.945v-1.518h2.945V4.346h2.71v7.678h3.469v1.518h-3.469v14.887
		c0,0.518,0.006,0.924,0.018,1.22c0.012,0.295,0.051,0.614,0.117,0.957c0.066,0.344,0.163,0.6,0.289,0.768
		c0.127,0.169,0.308,0.31,0.542,0.424c0.235,0.115,0.527,0.172,0.876,0.172c0.59,0,1.12-0.048,1.59-0.145v1.861
		c-0.807,0.205-1.59,0.307-2.349,0.307c-0.675,0-1.253-0.105-1.734-0.316c-0.482-0.21-0.852-0.472-1.111-0.786
		c-0.259-0.313-0.464-0.729-0.614-1.247c-0.151-0.518-0.244-1.003-0.28-1.454C302.62,29.738,302.602,29.193,302.602,28.555z"/>
	<path fill="#606060" d="M331.279,32.059v1.793c-0.677-0.044-1.362-0.239-2.057-0.587c-0.694-0.347-1.283-0.802-1.767-1.364
		c-1.494,1.406-3.12,2.109-4.878,2.109c-1.608,0-2.814-0.396-3.619-1.187c-0.804-0.791-1.206-1.819-1.206-3.085
		c0-1.204,0.327-2.476,0.982-3.816c0.654-1.34,1.549-2.468,2.683-3.382c-1.811-2.997-2.716-5.309-2.716-6.935
		c0-1.468,0.422-2.659,1.266-3.573s1.973-1.371,3.388-1.371s2.522,0.394,3.322,1.18s1.2,1.821,1.2,3.104
		c0,1.204-0.372,2.498-1.114,3.883c-0.743,1.384-1.856,2.74-3.342,4.067l4.232,6.5c1.31-1.74,1.964-3.625,1.964-5.656h1.688
		c0,0.976-0.244,2.105-0.731,3.388c-0.488,1.283-1.149,2.461-1.984,3.533C329.433,31.593,330.33,32.059,331.279,32.059z
		 M326.546,30.648l-4.337-6.658c-0.747,0.686-1.369,1.551-1.865,2.597c-0.497,1.046-0.745,2.03-0.745,2.953
		c0,0.87,0.25,1.569,0.751,2.096s1.279,0.791,2.333,0.791C323.984,32.428,325.271,31.835,326.546,30.648z M322.683,21.446
		c1.002-0.958,1.802-2.019,2.399-3.184c0.598-1.164,0.896-2.252,0.896-3.263c0-0.835-0.211-1.499-0.633-1.991
		s-1.068-0.738-1.938-0.738c-0.492,0-0.923,0.112-1.292,0.336c-0.369,0.224-0.65,0.516-0.844,0.876s-0.336,0.725-0.428,1.094
		c-0.093,0.369-0.139,0.738-0.139,1.107C320.706,17.311,321.365,19.231,322.683,21.446z"/>
	<path fill="#606060" d="M342.102,33.667V13.542h-3.017v-1.518h3.017V9.693c0-0.072,0-0.181,0-0.325c0-0.385,0-0.692,0-0.921
		c0-0.229,0.024-0.56,0.072-0.994c0.048-0.434,0.118-0.792,0.208-1.075c0.091-0.283,0.232-0.603,0.425-0.958
		c0.192-0.355,0.425-0.638,0.695-0.849c0.271-0.211,0.624-0.389,1.057-0.533s0.921-0.217,1.463-0.217
		c0.831,0,1.565,0.079,2.204,0.235v1.969c-0.289-0.072-0.735-0.108-1.337-0.108c-0.397,0-0.735,0.061-1.012,0.181
		c-0.277,0.121-0.485,0.253-0.623,0.397c-0.139,0.145-0.244,0.361-0.316,0.65s-0.111,0.524-0.117,0.705
		c-0.006,0.181-0.009,0.44-0.009,0.777c0,0.061,0,0.108,0,0.145v3.252h3.469v1.518h-3.469v20.126H342.102z"/>
	<path fill="#606060" d="M350.683,33.667V12.024h2.71v3.053c0.337-1.12,0.945-1.96,1.825-2.52c0.879-0.561,1.789-0.852,2.728-0.876
		v2.728c-0.133-0.048-0.271-0.072-0.416-0.072c-2.758,0-4.137,1.06-4.137,3.18v16.151H350.683z"/>
	<path fill="#606060" d="M359.68,23.695v-3.017c0.012-1.505,0.12-2.809,0.325-3.912c0.205-1.102,0.473-1.984,0.804-2.646
		c0.332-0.662,0.759-1.189,1.283-1.581c0.523-0.391,1.062-0.656,1.617-0.795c0.554-0.138,1.204-0.208,1.951-0.208
		c1.939,0,3.333,0.687,4.182,2.06c0.85,1.373,1.274,3.541,1.274,6.504c0,0.903-0.012,1.644-0.036,2.222h-8.672v3.306
		c0,1.421,0.069,2.586,0.208,3.496c0.139,0.91,0.358,1.593,0.66,2.051c0.301,0.458,0.632,0.765,0.994,0.921
		c0.361,0.157,0.819,0.235,1.373,0.235c0.807,0,1.484-0.406,2.032-1.22c0.548-0.812,0.828-2.17,0.84-4.074h2.529
		c-0.072,0.819-0.169,1.548-0.289,2.186c-0.121,0.639-0.31,1.277-0.569,1.915c-0.259,0.639-0.578,1.168-0.958,1.59
		c-0.379,0.422-0.87,0.765-1.472,1.03c-0.603,0.265-1.295,0.397-2.078,0.397c-1.53,0-2.719-0.304-3.568-0.913
		c-0.849-0.608-1.472-1.668-1.87-3.18C359.843,28.552,359.656,26.429,359.68,23.695z M362.426,20.985h5.998
		c-0.012-0.481-0.012-0.969,0-1.463c0.012-0.494,0.006-0.991-0.018-1.491c-0.024-0.5-0.057-0.978-0.099-1.436
		c-0.042-0.458-0.124-0.882-0.244-1.274c-0.121-0.391-0.271-0.731-0.452-1.021s-0.428-0.518-0.741-0.687
		c-0.313-0.168-0.675-0.253-1.084-0.253c-0.663,0-1.208,0.121-1.635,0.361c-0.428,0.241-0.759,0.524-0.994,0.849
		c-0.234,0.325-0.406,0.874-0.515,1.644c-0.108,0.771-0.172,1.448-0.189,2.032C362.435,18.832,362.426,19.745,362.426,20.985z"/>
	<path fill="#606060" d="M374.657,23.695v-3.017c0.012-1.505,0.12-2.809,0.325-3.912c0.205-1.102,0.473-1.984,0.804-2.646
		c0.332-0.662,0.759-1.189,1.283-1.581c0.523-0.391,1.062-0.656,1.617-0.795c0.554-0.138,1.204-0.208,1.951-0.208
		c1.939,0,3.333,0.687,4.182,2.06c0.85,1.373,1.274,3.541,1.274,6.504c0,0.903-0.012,1.644-0.036,2.222h-8.672v3.306
		c0,1.421,0.069,2.586,0.208,3.496c0.139,0.91,0.358,1.593,0.66,2.051c0.301,0.458,0.632,0.765,0.994,0.921
		c0.361,0.157,0.819,0.235,1.373,0.235c0.807,0,1.484-0.406,2.032-1.22c0.548-0.812,0.828-2.17,0.84-4.074h2.529
		c-0.072,0.819-0.169,1.548-0.289,2.186c-0.121,0.639-0.31,1.277-0.569,1.915c-0.259,0.639-0.578,1.168-0.958,1.59
		c-0.379,0.422-0.87,0.765-1.472,1.03c-0.603,0.265-1.295,0.397-2.078,0.397c-1.53,0-2.719-0.304-3.568-0.913
		c-0.849-0.608-1.472-1.668-1.87-3.18C374.82,28.552,374.633,26.429,374.657,23.695z M377.403,20.985h5.998
		c-0.012-0.481-0.012-0.969,0-1.463c0.012-0.494,0.006-0.991-0.018-1.491c-0.024-0.5-0.057-0.978-0.099-1.436
		c-0.042-0.458-0.124-0.882-0.244-1.274c-0.121-0.391-0.271-0.731-0.452-1.021s-0.428-0.518-0.741-0.687
		c-0.313-0.168-0.675-0.253-1.084-0.253c-0.663,0-1.208,0.121-1.635,0.361c-0.428,0.241-0.759,0.524-0.994,0.849
		c-0.234,0.325-0.406,0.874-0.515,1.644c-0.108,0.771-0.172,1.448-0.189,2.032C377.412,18.832,377.403,19.745,377.403,20.985z"/>
	<path fill="#D25B5B" d="M233.662,83.831l10.63-2.045c0,1.057,0.019,1.988,0.058,2.794c0.038,0.807,0.139,1.685,0.303,2.636
		c0.163,0.95,0.384,1.729,0.662,2.333c0.278,0.605,0.672,1.114,1.182,1.527c0.508,0.413,1.109,0.619,1.8,0.619
		c2.074,0,3.111-1.325,3.111-3.976c0-3.63-2.045-7.24-6.136-10.832l-3.255-2.766c-1.037-0.864-1.863-1.584-2.478-2.161
		c-0.615-0.576-1.339-1.354-2.175-2.333c-0.835-0.979-1.488-1.925-1.959-2.838c-0.471-0.912-0.874-2.011-1.21-3.298
		c-0.336-1.287-0.504-2.65-0.504-4.091c0-4.206,1.334-7.534,4.004-9.982c2.669-2.449,6.213-3.673,10.63-3.673
		c3.668,0,6.789,1.306,9.363,3.918c2.573,2.612,3.86,5.762,3.86,9.449l-0.029,0.375c0,0.25,0,0.538,0,0.864l-10.832,1.498
		c0-0.211,0.015-0.542,0.043-0.994c0.029-0.451,0.043-0.821,0.043-1.109c0-0.691-0.048-1.354-0.144-1.988
		c-0.096-0.634-0.255-1.268-0.476-1.901s-0.562-1.138-1.022-1.513c-0.461-0.374-1.018-0.562-1.671-0.562
		c-1.152,0-2.017,0.452-2.593,1.354c-0.576,0.903-0.864,1.969-0.864,3.198c0,1.076,0.168,2.084,0.504,3.025
		c0.336,0.941,0.845,1.82,1.527,2.636c0.681,0.816,1.311,1.493,1.887,2.031c0.576,0.538,1.344,1.196,2.305,1.973
		c0.96,0.778,1.642,1.35,2.045,1.714c1.479,1.306,2.727,2.531,3.745,3.673c1.018,1.143,1.978,2.434,2.881,3.875
		c0.902,1.44,1.58,2.996,2.031,4.667s0.677,3.477,0.677,5.416c0,3.63-1.296,6.602-3.889,8.917s-5.743,3.471-9.449,3.471
		c-2.401,0-4.533-0.442-6.396-1.325c-1.863-0.883-3.366-2.083-4.509-3.601c-1.143-1.517-2.021-3.198-2.636-5.042
		C234.113,87.922,233.758,85.944,233.662,83.831z"/>
	<path fill="#D25B5B" d="M270.71,98.667v-44.02h-7.605v-7.836h25.553v7.836h-7.461v44.02H270.71z"/>
	<path fill="#D25B5B" d="M290.962,81.613V64.184c0-12.253,5.051-18.38,15.153-18.38c10.121,0,15.182,6.127,15.182,18.38v17.17
		c0,2.074-0.154,3.99-0.461,5.748c-0.308,1.757-0.831,3.423-1.57,4.998c-0.74,1.575-1.681,2.915-2.823,4.019
		c-1.143,1.105-2.588,1.974-4.336,2.607c-1.748,0.634-3.745,0.951-5.992,0.951c-2.228,0-4.216-0.312-5.963-0.936
		c-1.748-0.624-3.188-1.47-4.321-2.535c-1.133-1.066-2.07-2.372-2.809-3.918s-1.268-3.193-1.584-4.941
		C291.121,85.598,290.962,83.687,290.962,81.613z M310.812,83.975V61.562c0-5.108-1.565-7.663-4.696-7.663
		c-0.941,0-1.738,0.235-2.391,0.706c-0.653,0.471-1.133,1.114-1.44,1.93c-0.308,0.817-0.523,1.624-0.648,2.42
		c-0.125,0.797-0.188,1.667-0.188,2.607v22.413c0,5.09,1.556,7.634,4.667,7.634C309.246,91.609,310.812,89.065,310.812,83.975z"/>
	<path fill="#D25B5B" d="M326.138,81.354v-17.17c0-12.253,5.013-18.38,15.038-18.38c2.112,0,3.99,0.284,5.632,0.85
		c1.643,0.566,3.02,1.349,4.134,2.348c1.114,0.999,2.031,2.228,2.751,3.688c0.72,1.46,1.238,3.044,1.556,4.753
		c0.316,1.709,0.475,3.592,0.475,5.646v4.465h-10.313v-4.782c0-0.941-0.02-1.752-0.058-2.435c-0.039-0.681-0.14-1.459-0.302-2.333
		c-0.164-0.874-0.385-1.585-0.663-2.132c-0.278-0.548-0.691-1.013-1.238-1.397c-0.548-0.384-1.206-0.576-1.974-0.576
		c-3.035,0-4.552,2.555-4.552,7.663v22.384c0,5.09,1.517,7.634,4.552,7.634c0.902,0,1.661-0.259,2.276-0.778
		c0.614-0.519,1.056-1.253,1.325-2.204c0.269-0.951,0.451-1.882,0.547-2.795c0.096-0.912,0.144-1.954,0.144-3.125v-5.33h10.256
		v4.379c-0.039,1.979-0.202,3.803-0.49,5.474s-0.778,3.294-1.469,4.869c-0.691,1.575-1.57,2.905-2.636,3.99
		c-1.065,1.085-2.444,1.959-4.134,2.622c-1.69,0.662-3.63,0.994-5.819,0.994c-2.247,0-4.24-0.322-5.978-0.965
		c-1.739-0.643-3.169-1.507-4.293-2.593c-1.123-1.084-2.05-2.42-2.78-4.004c-0.73-1.585-1.244-3.25-1.542-4.999
		C326.286,85.368,326.138,83.447,326.138,81.354z"/>
	<path fill="#D25B5B" d="M360.622,98.667V46.812h10.486v19.676l8.124-19.676h11.725l-10.573,21.232l11.351,30.624h-10.89
		l-7.836-23.709l-1.901,4.897v18.812H360.622z"/>
</g>
<path fill="#606060" d="M203.466,17.717c-9.032-9.045-21.598-14.664-35.394-14.659c-6.73-0.015-12.827,1.237-18.228,3.67
	c-4.049,1.813-7.663,4.225-11.016,6.989c-5.038,4.165-9.566,9.104-14.623,14.692c-3.557,3.938-7.359,8.146-11.732,12.761
	c-0.017,0.016-0.017,0.011-0.048,0.031l-11.624,11.954l0.017,0.017c-9.851,10.361-16.729,18.793-22.687,24.273
	c-3.523,3.266-6.615,5.471-9.814,6.902c-3.209,1.422-6.646,2.209-11.445,2.224c-9.268-0.005-17.58-3.732-23.66-9.8
	c-6.068-6.082-9.797-14.395-9.801-23.66c0.004-9.268,3.732-17.58,9.801-23.661c6.08-6.069,14.393-9.796,23.66-9.802
	c4.888,0.014,8.273,0.752,11.342,2.068c2.305,1.001,4.5,2.393,6.921,4.373c3.624,2.957,7.671,7.277,12.69,12.84
	c0.314,0.348,0.633,0.7,0.953,1.057l11.596-11.922c-4.059-4.491-7.715-8.468-11.488-11.981c-4.23-3.917-8.74-7.279-14.072-9.589
	c-5.323-2.321-11.299-3.449-17.941-3.437C43.077,3.053,30.51,8.672,21.479,17.717C12.434,26.749,6.815,39.315,6.82,53.112
	c-0.005,13.794,5.614,26.36,14.659,35.393c9.031,9.044,21.598,14.664,35.394,14.659h0.121c6.683,0.001,12.738-1.252,18.104-3.671
	c4.052-1.812,7.663-4.224,11.019-6.99c5.037-4.162,9.564-9.102,14.623-14.689c3.556-3.938,7.369-8.217,11.742-12.832
	c0.007,0.007,0.014,0.014,0.02,0.021l11.625-11.954l0,0c9.85-10.36,16.728-18.792,22.687-24.272
	c3.522-3.266,6.614-5.472,9.812-6.903c3.21-1.421,6.647-2.208,11.447-2.224c9.267,0.006,17.579,3.732,23.66,9.802
	c6.069,6.081,9.797,14.394,9.8,23.661c-0.003,9.266-3.73,17.578-9.8,23.66c-6.081,6.067-14.394,9.795-23.66,9.8
	c-4.888-0.013-8.272-0.751-11.343-2.067c-2.303-1-4.499-2.393-6.92-4.373c-3.625-2.957-7.672-7.277-12.691-12.841
	c-0.318-0.353-0.643-0.712-0.969-1.073l-11.594,11.922c4.062,4.497,7.725,8.48,11.502,12c4.23,3.916,8.741,7.277,14.072,9.588
	c5.324,2.32,11.299,3.449,17.942,3.437c13.796,0.005,26.361-5.615,35.394-14.659c9.045-9.032,14.664-21.599,14.659-35.393
	C218.13,39.315,212.511,26.749,203.466,17.717z"/>
</svg>
